<svg xmlns="http://www.w3.org/2000/svg" width="169.2mm" height="169.2mm" viewBox="0 0 479.5 479.5"><path d="M199.1,371.5c2.9,4,5.9,7.8,8.5,11.8a17.2,17.2,0,0,1,2.5,5.9c2.1,8-.1,10.8-8.2,9.8-4.2-.5-8.2-2.7-13.5-4.5-1.3,5.7-2.7,12.2-4.3,18.7-1.2,4.8-2.4,9.7-4,14.4-.6,1.5-2.7,3.3-4.2,3.4s-3.6-1.8-4-3.2c-2-6.8-4.9-13.8-4.9-20.7a224.8,224.8,0,0,1,2.7-38.4c.8-5.2,4.8-10.2,8.2-14.7,8.4-11.4,16.5-23.2,26.2-33.6s9.4-23.6,7.8-36.6c-.3-2.7-3.6-5-5.6-7.4s-2.7-2.2-3.6-3.5c-3.3-4.9-7.8-5.9-13.2-4.5l-26,7.1c-4.9,1.3-7,4.8-7.3,9.6-.2,3.3-.2,6.7-.2,10a8.3,8.3,0,0,1-5.9,8.4c-4,1.5-7.2-.9-8.3-4.5-2.3-7-5.2-14.3-5.5-21.6-.8-18.7,0-37.5-.6-56.2-.3-9.3,6-13.3,12.2-16.7s11.3-3.9,17.1-4.3c10.8-.6,21.7-.2,32.5-.2l.3-1.6c-3.7-4.3-7.3-8.7-11-12.9-7.6-8.5-15.3-16.8-20.3-27.3a6.4,6.4,0,0,0-4.4-3.3c-19.6-1.7-28.8-16-36.9-31.1-4.1-7.5-7.2-15.7-10.4-23.7s-4.3-13.8-1.6-21c1.8-5,6.5-8.9,10-8.5s8.3,4.2,9.4,10.3a15,15,0,0,1,.2,2c.2,12.4,6.6,22.6,12.4,32.9a8.4,8.4,0,0,0,3.2,3c1.1.7,2.9,1.4,3.8.9s1.6-2.3,1.8-3.6a48.5,48.5,0,0,0,.1-6.6c0-12.7-.2-25.4.1-38.1,0-3.3,1.1-6.5,2-9.7s4.3-7.1,9.4-6.2a10.9,10.9,0,0,1,8.5,10.4c.3,8.8.5,17.7,1,26.5.1,1.8,1.5,3.4,2.2,5.1,1.4-1.3,2.9-2.6,4.2-4,6.6-7.2,6-16.8,8.1-25.4.7-3.3-.5-6.9-.1-10.3s3-6.6,6.7-6.2,5.8,2.3,6.9,4.4c6.1,11.5,8.8,40-5.2,52.2-4.9,4.2-8.7,9.7-12.6,14.9-5.4,7.4-3.5,15.6-.4,23a81.7,81.7,0,0,0,11.2,18.3c8.7,11.1,24,16.6,37.7,6.9,11.9-8.5,23-17.7,29.3-31.5,3.1-6.9,3.1-8.9-1.9-14.4s-7.6-8.9-12-12.7c-10.5-9.3-11.7-26.1-8-35.5,2.3-5.9,6.3-6.5,10.6-1.9a21.5,21.5,0,0,1,1.8,2.4c6,8.2,12,16.4,18.1,24.5,2.9,3.9,6.5,3.3,8.3-1.3a26.7,26.7,0,0,0,1-6.4c.9-8.3,1.3-16.6,2.7-24.8,1-6.4,3.3-7.9,8.1-7.2s8.1,4.1,8,9.8c0,10.3-.2,20.7.1,31.1.1,2.4,1.7,4.7,2.6,7,2.7-1.3,6.1-2.1,8-4.2,5.2-5.6,6.5-13,7.4-20.4.5-4.6.7-9.3,1-14,.5-8.7,2.9-11,10.6-10.5,4.9.3,7.8,5.1,8.2,11a122,122,0,0,1-.8,27c-2.9,18.5-14.8,29.7-32.4,35-4.6,1.4-9.6,1.4-14.3,2.4-1.5.3-3.5,1.4-3.9,2.7C281,152.8,272,163.9,263,174.8c-4.5,5.5-10.1,10.2-15.1,15.3a46.5,46.5,0,0,0-4.3,4.9c1.8.5,2.8,1,3.9,1,15.8-.8,31.7-1.7,47.5-2.3a134.8,134.8,0,0,1,18,.5,7.1,7.1,0,0,1,6.8,7.4,146,146,0,0,1-.1,17.5c-.3,2.6-1.8,5.8-3.8,7.2-21,14.4-42,29.2-63.8,42.6-12.8,7.8-18.2,18.4-18.2,32.6,0,4.7,3.2,2.8,5.3,2,8.9-3.5,17.5-7.6,26.5-10.7,11.9-4,23.8-7.8,36-10.7,8.9-2.1,18-1.5,25.8,4.5a61,61,0,0,0,7.7,4.7c3.9,2.2,5.5,5.7,4.4,9.7s-5,4.4-8.6,4.3-6.7-.7-10-.5a59.3,59.3,0,0,0-8.6,1.3,7.9,7.9,0,0,0-.3,2.1c6.6,16.2,3.5,33,2.6,49.6a17.7,17.7,0,0,1-4.1,9.4c-4.3,5.2-4.7,10.6-2.5,16.4,3.2,8.7,8.5,16,14.7,22.9a18,18,0,0,1,3.8,6.9c1.3,4.7-1.1,7.7-6.1,8.1a53.1,53.1,0,0,1-6.9.3c-6-.6-10.9-2.8-13.5-8.8-.5-1.3-2.3-1.9-3.5-2.8-.7,1.4-2,2.8-1.8,4.1.7,5.8,1.9,11.5,2.9,17.2.5,2.5,1.3,5,1,7.4s-1.5,5.1-2.7,5.4-6.4.3-8.1-1.3c-7.7-7.1-12.2-15.7-12.5-26.8-.4-16.1,3.1-31.2,7.9-46.2,1.8-5.5-.1-9.1-6-8.6a220.1,220.1,0,0,0-25.6,4.1c-10.8,2.2-21.4,5.4-32.3,6.9C213,373.4,206.2,371.9,199.1,371.5Zm28.7-25v.9l15.8-2.1c7.6-1.1,15.2-2,22.6-3.8a244.7,244.7,0,0,0,27.7-8.3c2-.7,4.1-4.1,4.4-6.5a23.8,23.8,0,0,0-5.2-17.3,8,8,0,0,0-9.5-2.4c-17.6,6.3-35.1,12.7-52.7,18.9-8.5,3-14.3,9-19.6,15.8-.8,1.1-1.1,3.5-.4,4.5s2.9,1.4,4.4,1.4C219.5,347.4,223.6,346.9,227.8,346.5Zm-61.6-92.1.2.9c6.2-1.2,13-1,18.4-3.8,7.5-3.9,12.2-11.3,14.8-19.5s-5-18.2-13.4-16.8a136.9,136.9,0,0,0-25.2,7.2c-3.8,1.5-7.9,4.8-9.5,8.4-2.9,6.3-2.1,13.5.7,20s8.2,3,12.5,3.6ZM244.7,239c.4-10.3-2.9-16.8-8.1-22.6-3-3.3-7-4.1-9.9-1.8s-8.3,7.4-9,11.8c-1.3,7.8-.4,16,.6,23.9.5,3.6,3.4,7.1,5.8,10.2a4.9,4.9,0,0,0,7.9.1C237.9,253.6,246.3,247.8,244.7,239Zm26.6-25.9c-14.9.1-17.3,3-12.8,17.7.2.5.1,1.2.4,1.4s3.6,3.9,5.3,3.8c10.7-.8,20.3-4.5,27.4-13,1.1-1.4,1.1-4.2.5-6s-2.5-2.5-4-2.7C283,213.7,277.8,213.5,271.3,213.1Z"/></svg>